HIERARCHY
ROOT Hips
{
	OFFSET -0.001795 -0.223333 0.028219
	CHANNELS 6 Xposition Yposition Zposition Zrotation Yrotation Xrotation 
	JOINT LeftUpLeg
	{
		OFFSET 0.069520 -0.091406 -0.006815
		CHANNELS 3 Zrotation Yrotation Xrotation
		JOINT LeftLeg
		{
			OFFSET 0.034277 -0.375199 -0.004496
			CHANNELS 3 Zrotation Yrotation Xrotation
			JOINT LeftFoot
			{
				OFFSET -0.013596 -0.397961 -0.043693
				CHANNELS 3 Zrotation Yrotation Xrotation
				JOINT LeftToe
				{
					OFFSET 0.026358 -0.055791 0.119288
					CHANNELS 3 Zrotation Yrotation Xrotation
					End Site
					{
						OFFSET 0.000000 0.000000 0.000000
					}
				}
			}
		}
	}
	JOINT RightUpLeg
	{
		OFFSET -0.067670 -0.090522 -0.004320
		CHANNELS 3 Zrotation Yrotation Xrotation
		JOINT RightLeg
		{
			OFFSET -0.038290 -0.382569 -0.008850
			CHANNELS 3 Zrotation Yrotation Xrotation
			JOINT RightFoot
			{
				OFFSET 0.015774 -0.398415 -0.042312
				CHANNELS 3 Zrotation Yrotation Xrotation
				JOINT RightToe
				{
					OFFSET -0.025372 -0.048144 0.123348
					CHANNELS 3 Zrotation Yrotation Xrotation
					End Site
					{
						OFFSET 0.000000 0.000000 0.000000
					}
				}
			}
		}
	}
	JOINT Spine
	{
		OFFSET -0.002533 0.108963 -0.026696
		CHANNELS 3 Zrotation Yrotation Xrotation
		JOINT Spine1
		{
			OFFSET 0.005487 0.135180 0.001092
			CHANNELS 3 Zrotation Yrotation Xrotation
			JOINT Spine2
			{
				OFFSET 0.001457 0.052922 0.025425
				CHANNELS 3 Zrotation Yrotation Xrotation
				JOINT Neck
				{
					OFFSET -0.002778 0.213870 -0.042857
					CHANNELS 3 Zrotation Yrotation Xrotation
					JOINT Head
					{
						OFFSET 0.005152 0.064970 0.051349
						CHANNELS 3 Zrotation Yrotation Xrotation
						End Site
						{
							OFFSET 0.000000 0.000000 0.000000
						}
					}
				}
				JOINT LeftShoulder
				{
					OFFSET 0.078845 0.121749 -0.034090
					CHANNELS 3 Zrotation Yrotation Xrotation
					JOINT LeftArm
					{
						OFFSET 0.090977 0.030469 -0.008868
						CHANNELS 3 Zrotation Yrotation Xrotation
						JOINT LeftForeArm
						{
							OFFSET 0.259612 -0.012772 -0.027456
							CHANNELS 3 Zrotation Yrotation Xrotation
							JOINT LeftHand
							{
								OFFSET 0.249234 0.008986 -0.001171
								CHANNELS 3 Zrotation Yrotation Xrotation
								End Site
								{
									OFFSET 0.000000 0.000000 0.000000
								}
							}
						}
					}
				}
				JOINT RightShoulder
				{
					OFFSET -0.081759 0.118833 -0.038615
					CHANNELS 3 Zrotation Yrotation Xrotation
					JOINT RightArm
					{
						OFFSET -0.096012 0.032551 -0.009143
						CHANNELS 3 Zrotation Yrotation Xrotation
						JOINT RightForeArm
						{
							OFFSET -0.253742 -0.013329 -0.021401
							CHANNELS 3 Zrotation Yrotation Xrotation
							JOINT RightHand
							{
								OFFSET -0.255298 0.007772 -0.005559
								CHANNELS 3 Zrotation Yrotation Xrotation
								End Site
								{
									OFFSET 0.000000 0.000000 0.000000
								}
							}
						}
					}
				}
			}
		}
	}
}
MOTION
Frames: 15
Frame Time: 0.050000
0.000000 0.931688 0.000000 -2.139773 -7.020764 3.537885 2.610220 0.039646 0.825558 6.298174 -0.833157 1.140867 0.910663 2.588279 1.945554 0.000000 0.000000 0.000000 1.487124 -0.237178 1.582697 0.263854 -0.242273 -6.435012 -0.675649 -5.373188 7.386993 0.000000 0.000000 0.000000 -0.784118 0.053312 -0.926586 -2.011645 1.113120 6.361177 1.538679 0.258206 1.648882 0.334048 0.683574 -17.174667 0.000000 0.000000 0.000000 -33.874324 -16.366252 9.900834 -36.823453 -6.668380 -2.679903 -11.154660 -63.185543 10.006673 0.000000 0.000000 0.000000 31.673568 19.199134 8.470618 45.946620 1.277649 -3.096831 -4.167208 66.787864 -1.127403 0.000000 0.000000 0.000000 
-0.000175 0.931352 0.000781 -1.983381 -6.960437 4.521778 3.284504 -0.005186 0.444478 4.829967 -0.560591 -0.066345 0.787219 2.380120 2.098064 0.000000 0.000000 0.000000 1.382117 -0.152319 0.785686 0.178303 -0.253067 -6.891347 -0.714092 -5.478351 7.463403 0.000000 0.000000 0.000000 -1.158844 0.091152 -1.701474 -2.171485 1.218807 7.110549 2.191279 -0.155637 1.140181 0.056801 0.841378 -17.921983 0.000000 0.000000 0.000000 -33.254057 -16.390809 10.075834 -36.954572 -7.649630 -2.446502 -14.478805 -66.163178 12.925454 0.000000 0.000000 0.000000 30.660855 18.480532 7.649054 45.853698 0.296016 -3.341855 -0.600623 69.793053 1.056858 0.000000 0.000000 0.000000 
-0.000044 0.931144 0.001270 -1.891051 -7.087656 4.763773 4.091225 -0.027711 0.242974 3.155610 -0.367508 -0.098484 0.767908 2.314643 2.025591 0.000000 0.000000 0.000000 1.644571 -0.115500 0.302947 -0.529726 -0.216879 -6.481192 -0.762331 -5.470163 7.172367 0.000000 0.000000 0.000000 -0.379259 0.067015 -1.345829 -1.963130 1.063887 5.575350 1.400670 -0.370826 2.368585 -0.103839 0.839912 -16.662638 0.000000 0.000000 0.000000 -33.207015 -16.595199 10.357632 -36.038022 -7.436471 -2.560041 -11.191925 -65.799550 10.718725 0.000000 0.000000 0.000000 32.594312 19.379025 8.412907 44.335596 0.138937 -3.309890 -7.116548 68.307382 -3.196807 0.000000 0.000000 0.000000 
-0.000063 0.931087 0.001698 -1.788813 -7.442830 4.954907 4.295564 -0.014162 0.506452 2.487521 -0.253981 -0.794973 0.830329 2.500411 2.237235 0.000000 0.000000 0.000000 1.469804 -0.102000 0.236757 -0.486557 -0.227405 -6.769559 -0.601454 -5.181465 7.216165 0.000000 0.000000 0.000000 -0.355070 0.091961 -1.930916 -2.448314 1.375160 6.842848 2.202659 -0.661578 1.501509 -0.353412 0.911708 -16.121894 0.000000 0.000000 0.000000 -33.254338 -17.871185 11.567301 -35.730078 -7.179449 -2.621412 -9.200356 -65.822803 9.454304 0.000000 0.000000 0.000000 32.863199 20.584056 8.960077 44.016372 -0.761735 -3.404235 -10.471244 69.138822 -5.732239 0.000000 0.000000 0.000000 
-0.000130 0.930920 0.002105 -1.484188 -7.796181 4.591694 3.586485 0.034186 1.029359 3.058406 -0.310855 -0.933432 0.961587 2.787546 2.319904 0.000000 0.000000 0.000000 1.102461 -0.136971 0.763929 -0.489328 -0.236549 -7.080563 -0.470788 -4.884597 7.101069 0.000000 0.000000 0.000000 0.273121 0.078198 -1.786647 -3.000478 1.704642 7.116196 2.141140 -0.734803 1.573522 -0.473145 0.882690 -14.249851 0.000000 0.000000 0.000000 -33.399349 -18.770659 12.369695 -34.962760 -6.364664 -2.817845 -7.276985 -66.208634 8.243982 0.000000 0.000000 0.000000 33.545954 21.062726 9.248888 43.097854 -0.290532 -3.116068 -11.040066 67.675054 -5.955592 0.000000 0.000000 0.000000 
-0.000375 0.931002 0.002419 -1.247528 -7.780039 4.541593 3.067694 0.082692 1.605483 3.560566 -0.302547 -1.906578 0.881687 2.732254 2.681246 0.000000 0.000000 0.000000 0.663246 -0.142515 1.067601 -0.128824 -0.260325 -7.548269 -0.442335 -4.875267 7.232020 0.000000 0.000000 0.000000 0.184638 0.065594 -1.504597 -3.002126 1.715833 7.387092 2.593336 -0.816232 1.440848 -0.958961 1.182760 -14.770279 0.000000 0.000000 0.000000 -33.051439 -19.209109 12.705953 -34.824506 -6.923786 -2.670669 -7.429237 -64.979282 8.155365 0.000000 0.000000 0.000000 33.809854 21.905165 9.806807 42.666209 -0.180180 -2.991446 -13.384607 65.856464 -7.258521 0.000000 0.000000 0.000000 
-0.000916 0.931044 0.002458 -1.031154 -7.614212 4.527426 2.853697 0.095038 1.726373 3.637229 -0.289589 -2.205032 0.768652 2.558741 2.854359 0.000000 0.000000 0.000000 0.598358 -0.112919 0.804234 -0.343259 -0.240061 -7.052896 -0.605791 -5.079359 6.950366 0.000000 0.000000 0.000000 0.321725 0.054103 -1.304413 -2.958819 1.690248 7.468210 2.690341 -1.030809 1.415133 -0.775018 1.041449 -14.305450 0.000000 0.000000 0.000000 -32.849352 -19.323672 12.826022 -34.205339 -6.604493 -2.726421 -7.383236 -64.232560 7.999901 0.000000 0.000000 0.000000 34.323216 22.162617 9.962442 41.897736 0.243750 -2.748864 -13.167171 64.007144 -6.850192 0.000000 0.000000 0.000000 
-0.001623 0.931005 0.002355 -0.865616 -7.671169 4.398319 2.623660 0.110403 1.843671 3.795700 -0.306185 -2.193456 0.778073 2.597976 2.925897 0.000000 0.000000 0.000000 0.547156 -0.072090 0.418304 -0.503578 -0.203569 -6.139665 -0.719182 -5.116032 6.479916 0.000000 0.000000 0.000000 0.197242 0.035742 -0.865782 -3.014841 1.734420 7.710027 3.071167 -0.910018 1.056181 -1.006466 1.187960 -14.354617 0.000000 0.000000 0.000000 -32.700493 -19.408610 12.837094 -33.360920 -6.701340 -2.624238 -8.437738 -63.320487 8.478712 0.000000 0.000000 0.000000 34.850075 22.472034 10.243209 41.350917 0.263717 -2.661186 -12.046291 62.607022 -5.959380 0.000000 0.000000 0.000000 
-0.002287 0.931018 0.002170 -0.805972 -7.345994 4.280594 2.748609 0.109178 1.880433 3.638750 -0.291320 -2.164712 0.622222 2.295194 2.928888 0.000000 0.000000 0.000000 0.677158 -0.045414 0.090049 -0.713129 -0.163290 -5.270466 -0.963690 -5.456953 6.127570 0.000000 0.000000 0.000000 0.175785 0.019633 -0.504319 -2.997390 1.723711 7.951097 3.346454 -0.759675 0.978372 -1.057384 1.246650 -14.554903 0.000000 0.000000 0.000000 -32.192417 -20.018563 13.064855 -32.966494 -6.850530 -2.522087 -8.181526 -62.650602 8.167547 0.000000 0.000000 0.000000 35.022551 22.744096 10.609624 40.682846 0.407859 -2.598331 -11.738435 61.754377 -5.595045 0.000000 0.000000 0.000000 
-0.002712 0.930915 0.002003 -0.617796 -6.979743 4.183614 2.574465 0.115309 1.928057 3.747307 -0.294432 -2.244476 0.452599 1.973611 2.957736 0.000000 0.000000 0.000000 0.728327 -0.022147 -0.156631 -1.054474 -0.120031 -4.614003 -1.227363 -5.849623 5.788599 0.000000 0.000000 0.000000 0.082053 0.003401 -0.090667 -2.901545 1.663183 8.129010 3.534415 -0.610338 0.907524 -0.941732 1.196894 -14.442943 0.000000 0.000000 0.000000 -32.067635 -20.398580 13.190719 -32.742562 -6.909562 -2.459256 -9.358604 -62.223425 8.777446 0.000000 0.000000 0.000000 34.917780 23.173990 11.088550 40.288798 0.542125 -2.570222 -11.639307 61.403383 -5.429626 0.000000 0.000000 0.000000 
-0.002830 0.930968 0.001843 -0.474954 -6.364154 4.273500 2.602725 0.093374 1.707722 3.612871 -0.275364 -2.282908 0.174033 1.442528 2.992488 0.000000 0.000000 0.000000 0.528654 0.033899 -0.620496 -0.836435 -0.100107 -3.881306 -1.562750 -6.444683 5.582665 0.000000 0.000000 0.000000 0.098682 -0.004266 0.074442 -2.947654 1.676999 8.417994 3.694763 -0.572107 0.722550 -1.025263 1.279784 -14.635672 0.000000 0.000000 0.000000 -31.830724 -20.799469 13.299289 -32.768676 -6.859584 -2.424986 -11.004354 -62.095298 9.718637 0.000000 0.000000 0.000000 34.705627 23.403116 11.393054 40.350011 0.582109 -2.599087 -11.048024 61.336205 -5.031108 0.000000 0.000000 0.000000 
-0.002779 0.931140 0.001493 -0.311259 -5.995650 4.239202 2.586166 0.074131 1.470251 3.423867 -0.274067 -1.994989 0.006024 1.117582 2.996766 0.000000 0.000000 0.000000 0.366240 0.099928 -1.210939 -0.794308 -0.052621 -2.740464 -1.827630 -6.876110 5.278749 0.000000 0.000000 0.000000 0.233310 -0.028512 0.546538 -2.814463 1.586385 8.400380 3.624223 -0.481848 0.987091 -0.751310 1.142661 -14.740369 0.000000 0.000000 0.000000 -31.624166 -20.876967 13.188854 -32.746030 -6.799562 -2.417976 -13.429699 -62.432861 11.238554 0.000000 0.000000 0.000000 34.856859 23.653403 11.787985 40.179109 0.513185 -2.680752 -10.814471 62.020814 -4.887320 0.000000 0.000000 0.000000 
-0.002606 0.931032 0.000894 -0.146849 -5.379948 4.387067 2.424474 0.051012 1.172007 3.550667 -0.278567 -2.056651 -0.250206 0.620915 2.996189 0.000000 0.000000 0.000000 0.219008 0.190664 -2.062755 -0.742372 0.001633 -1.465598 -2.218244 -7.559423 4.922801 0.000000 0.000000 0.000000 0.431556 -0.059075 1.090481 -2.766815 1.533911 8.363528 3.437506 -0.286555 0.945284 -0.525308 1.065850 -15.048732 0.000000 0.000000 0.000000 -31.146165 -21.363561 13.209708 -33.079475 -6.444413 -2.452329 -16.846157 -63.141763 13.476742 0.000000 0.000000 0.000000 35.104707 23.485480 11.979482 40.237813 0.674810 -2.711042 -10.042399 62.795800 -4.412898 0.000000 0.000000 0.000000 
-0.002496 0.930723 0.000187 0.063029 -5.163288 4.529277 2.245910 0.005518 0.547171 3.506919 -0.314801 -1.410487 -0.287098 0.478918 2.796525 0.000000 0.000000 0.000000 0.062346 0.309980 -3.219772 -0.829748 0.092339 0.289047 -2.502704 -7.975862 4.364289 0.000000 0.000000 0.000000 0.832517 -0.097509 1.595493 -3.062928 1.690572 8.258944 3.691064 -0.372731 1.040272 -0.414303 1.000530 -15.200628 0.000000 0.000000 0.000000 -31.088916 -21.375064 13.242031 -32.924004 -6.067824 -2.541854 -19.961574 -63.646968 15.594470 0.000000 0.000000 0.000000 34.788030 23.780530 12.139502 40.475029 0.518856 -2.776963 -8.113548 63.689555 -3.336984 0.000000 0.000000 0.000000 
-0.002517 0.930024 -0.000358 0.284152 -4.421469 4.655479 1.867481 -0.038698 -0.065219 3.958946 -0.391343 -0.887839 -0.503305 -0.058998 2.479587 0.000000 0.000000 0.000000 -0.257768 0.407347 -4.148911 -0.524702 0.133216 1.794027 -2.973553 -8.814965 3.843421 0.000000 0.000000 0.000000 0.981397 -0.133371 2.204850 -2.890409 1.559295 8.115406 3.659423 -0.377895 0.913112 -0.336428 0.992347 -15.359412 0.000000 0.000000 0.000000 -31.038643 -21.338457 13.052817 -33.048262 -5.218410 -2.707271 -22.817811 -64.029037 17.505109 0.000000 0.000000 0.000000 34.266258 23.436709 11.983780 40.601633 0.663953 -2.797215 -6.709229 64.696149 -2.485291 0.000000 0.000000 0.000000 
